<svg viewBox="0 0 32 32" xmlns="http://www.w3.org/2000/svg"><path d="m20 8h-2a5 5 0 0 0 -10 0h-2a7 7 0 0 1 14 0z"/><path d="m25 15a2.94 2.94 0 0 0 -1.47.4 3 3 0 0 0 -2.53-1.4 2.94 2.94 0 0 0 -1.47.4 3 3 0 0 0 -3.53-1.22v-5.18a3 3 0 0 0 -6 0v11.1l-2.23-1.52a2.93 2.93 0 0 0 -1.77-.58 3 3 0 0 0 -2.12 5.13l8 7.3a6.16 6.16 0 0 0 4.12 1.57h5a7 7 0 0 0 7-7v-6a3 3 0 0 0 -3-3zm1 9a5 5 0 0 1 -5 5h-5a4.17 4.17 0 0 1 -2.76-1l-7.95-7.3a1 1 0 0 1 -.29-.7 1 1 0 0 1 1.6-.8l5.4 3.7v-14.9a1 1 0 0 1 2 0v11h2v-3a1 1 0 0 1 2 0v3h2v-2a1 1 0 0 1 2 0v2h2v-1a1 1 0 0 1 2 0z"/><path d="m0 0h32v32h-32z" fill="none"/></svg>